<?xml version="1.0" encoding="UTF-8"?>
<svg width="300px" height="300px" viewBox="0 0 300 300" version="1.1" xmlns="http://www.w3.org/2000/svg" xmlns:xlink="http://www.w3.org/1999/xlink">
    <!-- Generator: Sketch 56.3 (81716) - https://sketch.com -->
    <title>Artboard</title>
    <desc>Created with Sketch.</desc>
    <defs>
        <polygon id="path-1" points="0.0305343511 0.425445293 199.591858 0.425445293 199.591858 163.358779 0.0305343511 163.358779"></polygon>
        <polygon id="path-3" points="0 0.898238748 103 0.898238748 103 103.898239 0 103.898239"></polygon>
    </defs>
    <g id="Artboard" stroke="none" stroke-width="1" fill="none" fill-rule="evenodd">
        <g id="Group" transform="translate(10.000000, 61.000000)">
            <g id="sun" transform="translate(0.000000, -0.000000)">
                <mask id="mask-2" fill="white">
                    <use xlink:href="#path-1"></use>
                </mask>
                <g id="Clip-2"></g>
                <path d="M134.950127,90.1374046 C155.152672,88.9694656 172.476845,104.4 173.644784,124.602545 C174.812723,144.805598 159.381679,162.129771 139.179135,163.29771 C137.770483,163.379135 136.358779,163.379135 134.950127,163.29771 L28.5888041,163.29771 C12.7933842,163.291094 -0.00661577608,150.480916 -2.56340442e-06,134.685496 C0.00661577608,118.898728 12.8025445,106.102799 28.5888041,106.096692 L30.6244275,106.096692 C27.2519084,81.751145 44.2534351,59.280916 68.5989822,55.9083969 C92.9445293,52.535369 115.414758,69.5374046 118.787277,93.8829517 C123.814758,91.4071247 129.346056,90.1256997 134.950127,90.1374046" id="Fill-1" fill="#00ACBC" mask="url(#mask-2)"></path>
                <path d="M138.817812,39.2468193 C158.722646,47.1816794 168.425445,69.7506361 160.490585,89.6549618 C159.422392,92.3338422 158.059033,94.8849873 156.425954,97.2620865 C145.394911,89.3058524 130.86514,88.1150127 118.685496,94.1679389 C116.275318,77.783715 104.978626,64.0880407 89.3521628,58.605598 C98.0554707,40.0452926 119.728244,31.4992366 138.756743,39.1246819 L138.817812,39.2468193 Z M142.889059,20.9262087 C142.326718,22.8992366 140.271756,24.0427481 138.298728,23.480916 C136.3257,22.9185751 135.181679,20.8636132 135.74402,18.8905852 L139.937405,3.54198473 C140.499746,1.56895674 142.554707,0.424936387 144.527735,0.987277354 C146.500763,1.54910941 147.644784,3.60458015 147.082443,5.57760814 L142.889059,20.9262087 Z M168.191858,37.8625954 C166.735878,39.3124682 164.380153,39.307888 162.929771,37.8524173 C161.479389,36.3964377 161.483969,34.0402036 162.939949,32.5903308 L174.258015,21.394402 C175.713995,19.9496183 178.06514,19.9587786 179.509924,21.4142494 C180.954707,22.870229 180.945547,25.221883 179.489567,26.6666667 L168.191858,37.8625954 Z M181.545547,65.221374 C179.541985,65.6366412 177.58117,64.3496183 177.165394,62.346056 C176.778117,60.4783715 177.871756,58.621883 179.69313,58.0559796 L195.082443,53.9847328 C197.086005,53.5689567 199.046819,54.8559796 199.462595,56.859542 C199.849873,58.7272265 198.756234,60.583715 196.93486,61.1501272 L181.545547,65.221374 Z M179.509924,95.6335878 C177.536896,95.0712468 176.392875,93.016285 176.955216,91.043257 C177.517557,89.070229 179.572519,87.9262087 181.545547,88.4885496 L196.894148,92.6819338 C198.867176,93.2437659 200.011196,95.2987277 199.448855,97.2722646 C198.886514,99.2452926 196.831552,100.388804 194.858524,99.826972 L179.509924,95.6335878 Z M85.1180662,32.162341 C86.5628499,33.6183206 86.5536896,35.9699746 85.0977099,37.4147583 C83.6417303,38.8590331 81.2905852,38.8498728 79.8458015,37.3938931 L68.6498728,26.0763359 C67.0768448,24.76743 66.8625954,22.4315522 68.1715013,20.8585242 C69.4798982,19.2854962 71.8157761,19.0712468 73.3888041,20.3801527 C73.5847328,20.5430025 73.7638677,20.7262087 73.9221374,20.9262087 L85.1180662,32.162341 Z M112.497201,18.7684478 C113.104835,20.7221374 112.013232,22.7984733 110.059542,23.4061069 C108.105852,24.0137405 106.029008,22.9221374 105.421883,20.9684478 C105.38626,20.853944 105.356234,20.7379135 105.331807,20.6208651 L101.26056,5.23155216 C100.652926,3.27735369 101.744529,1.20101781 103.698219,0.593384224 C105.651908,-0.0142493639 107.728753,1.07735369 108.335878,3.03104326 C108.371501,3.14554707 108.401527,3.26157761 108.425954,3.37913486 L112.497201,18.7684478 L112.497201,18.7684478 Z" id="Fill-3" fill="#F2DC2F" mask="url(#mask-2)"></path>
            </g>
            <g id="high-volume" transform="translate(177.000000, 75.000000)">
                <mask id="mask-4" fill="white">
                    <use xlink:href="#path-3"></use>
                </mask>
                <g id="Clip-2"></g>
                <path d="M102.999404,52.208936 C102.938813,63.7549946 98.3835669,74.5860884 90.17108,82.7084028 L87.3111933,85.5366782 L81.650401,79.8203794 L84.5102878,76.9923052 C98.3088841,63.3456098 98.4252362,41.0241821 84.7697651,27.2344536 L81.9398722,24.3764048 L87.6596457,18.7192505 L90.4895386,21.5772993 C98.6164724,29.7845083 103.059191,40.6626762 102.999404,52.208936 Z M79.7648123,32.1844887 L76.9349194,29.3262387 L71.2149446,34.9827895 L74.0450388,37.841643 C81.8478776,45.721143 81.7818508,58.4758423 73.8972837,66.2744712 L71.0365917,69.1025454 L76.697384,74.818643 L79.5572707,71.9905688 C90.5958257,61.0729712 90.6894307,43.2157485 79.7648123,32.1844887 Z M68.3252653,43.4979927 L65.4951711,40.6399438 L59.7753976,46.2970981 L62.6054917,49.155147 C64.1663816,50.7307251 64.1528944,53.2823891 62.5754979,54.8414712 L59.7156111,57.6695454 L65.3766047,63.3864477 L68.2364914,60.5575688 C72.9670706,55.8787134 73.0071296,48.2263364 68.3252653,43.4979927 Z M19.1864241,32.843729 L54.7209247,0.898238748 L54.7209247,103.898239 L19.2361455,71.4459966 L12.6741276,71.4459966 C5.80391744,71.4459966 0,65.9216157 0,59.3827251 L0,44.9070005 C0,38.3681098 5.80391744,32.843729 12.6741276,32.843729 L19.1864241,32.843729 Z M12.6741276,63.4037485 L16.899038,63.4037485 L16.899038,40.8857759 L12.6741276,40.8857759 C10.296156,40.8857759 8.04741979,42.8401606 8.04741979,44.9070005 L8.04741979,59.3827251 C8.04741979,61.4493637 10.296156,63.4037485 12.6741276,63.4037485 Z M46.6735049,18.9501958 L24.9464578,38.4835825 L24.9464578,65.767518 L46.6735049,85.6372641 L46.6735049,18.9501958 Z" id="Fill-1" fill="#FFFFFF" mask="url(#mask-4)"></path>
            </g>
        </g>
    </g>
</svg>